<svg xmlns="http://www.w3.org/2000/svg" viewBox="0 0 100 100" width="760" height="760">
  <rect width="100" height="100" fill="#fafbfc"/>
  <g stroke="#cdd6e0" stroke-width="0.25">
    <line x1="25" y1="0" x2="25" y2="100"/><line x1="50" y1="0" x2="50" y2="100"/><line x1="75" y1="0" x2="75" y2="100"/>
    <line x1="0" y1="25" x2="100" y2="25"/><line x1="0" y1="50" x2="100" y2="50"/><line x1="0" y1="75" x2="100" y2="75"/>
  </g>
  <path fill="#1f3a5f" fill-rule="nonzero" d="M31 47 Q28 53 34 58 Q44 64 57 62 Q72 62 81 57 Q88 52 86 44 Q85 36 88 30 Q84 26 79 31 Q74 37 67 38 Q56 40 47 39 Q38 40 31 47 Z M42 45 Q41 35 45 28 Q49 18 55 13 Q59 10 60 17 Q60 26 57 34 Q55 41 52 46 Q47 49 42 45 Z M30 58 Q24 61 27 69 Q31 75 39 70 Q46 66 41 58 Q38 53 33 55 Z M54 60 Q57 70 53 76 Q50 78 49 72 Q48 64 50 59 Q52 57 54 60 Z M62 60 Q66 62 63 66 Q59 67 59 63 Q59 59 62 60 Z M22 48 Q16 50 19 58 Q23 64 26 56 Q29 49 22 48 Z M14 50 Q11 51 13 55 Q16 57 17 53 Q18 49 14 50 Z"/>
</svg>
