<svg xmlns="http://www.w3.org/2000/svg" viewBox="0 0 100 100" width="760" height="760">
  <rect width="100" height="100" fill="#fafbfc"/>
  <g stroke="#cdd6e0" stroke-width="0.25">
    <line x1="25" y1="0" x2="25" y2="100"/>
    <line x1="50" y1="0" x2="50" y2="100"/>
    <line x1="75" y1="0" x2="75" y2="100"/>
    <line x1="0" y1="25" x2="100" y2="25"/>
    <line x1="0" y1="50" x2="100" y2="50"/>
    <line x1="0" y1="75" x2="100" y2="75"/>
  </g>
  <g fill="#9aa7b4" font-size="3" font-family="sans-serif">
    <text x="25.3" y="4">x25</text><text x="50.3" y="4">x50</text><text x="75.3" y="4">x75</text>
    <text x="0.3" y="25.5">y25</text><text x="0.3" y="50.5">y50</text><text x="0.3" y="75.5">y75</text>
  </g>
  <!-- body (blue) -->
  <path d="M33 46 Q28 50 34 57 Q42 64 57 62 Q74 61 79 51 Q82 44 71 43 Q62 38 51 39 Q42 40 33 46 Z" fill="#2563eb" fill-opacity="0.5" stroke="#2563eb" stroke-width="0.4"/>
  <!-- Scandinavia (red) -->
  <path d="M45 46 Q49 47 54 47 Q58 46 60 36 Q63 23 56 15 Q49 10 47 18 Q43 33 45 46 Z" fill="#dc2626" fill-opacity="0.5" stroke="#dc2626" stroke-width="0.4"/>
  <!-- Iberia (green) -->
  <path d="M30 58 Q24 61 27 69 Q31 75 39 70 Q46 66 41 58 Q38 53 33 55 Z" fill="#16a34a" fill-opacity="0.5" stroke="#16a34a" stroke-width="0.4"/>
  <!-- Italy (orange) -->
  <path d="M54 60 Q57 70 53 76 Q50 78 49 72 Q48 64 50 59 Q52 57 54 60 Z" fill="#d97706" fill-opacity="0.5" stroke="#d97706" stroke-width="0.4"/>
  <!-- Greece/Balkans (purple) -->
  <path d="M62 60 Q66 62 63 66 Q59 67 59 63 Q59 59 62 60 Z" fill="#9333ea" fill-opacity="0.5" stroke="#9333ea" stroke-width="0.4"/>
  <!-- Britain (cyan) -->
  <path d="M22 48 Q16 50 19 58 Q23 64 26 56 Q29 49 22 48 Z" fill="#0891b2" fill-opacity="0.5" stroke="#0891b2" stroke-width="0.4"/>
  <!-- Ireland (lime) -->
  <path d="M14 50 Q11 51 13 55 Q16 57 17 53 Q18 49 14 50 Z" fill="#65a30d" fill-opacity="0.5" stroke="#65a30d" stroke-width="0.4"/>
</svg>
